<?xml version="1.0" encoding="utf-8"?>
<svg xmlns="http://www.w3.org/2000/svg" xmlns:xlink="http://www.w3.org/1999/xlink" width="36" height="36" viewBox="0 0 36 36">
  <defs>
    <linearGradient id="a" x1="18" y1="1.181" x2="18" y2="37.126" gradientTransform="matrix(1, 0, 0, -1, 0, 37.276)" gradientUnits="userSpaceOnUse">
      <stop offset="0" stop-color="#3d3f58"/>
      <stop offset="1" stop-color="#777e92"/>
    </linearGradient>
  </defs>
  <title>icon</title>
  <circle cx="18" cy="18" r="18" fill="url(#a)"/>
  <polygon points="21.627 18.797 27.023 26.653 16.231 26.653 21.627 18.797" fill="#fff"/>
  <polyline points="14.262 21.422 17.854 26.653 10.669 26.653" fill="#fff"/>
  <circle cx="15.558" cy="18.324" r="0.998" fill="#fff"/>
  <path d="M20.9,3.8a4.346,4.346,0,0,0-4.345,4.346c0,3.437,4.345,7.936,4.345,7.936s4.346-4.331,4.346-7.936A4.346,4.346,0,0,0,20.9,3.8Zm0,7.751a3.406,3.406,0,1,1,3.406-3.4A3.4,3.4,0,0,1,20.9,11.548Z" transform="translate(0 0)" fill="#fff"/>
  <path d="M28,12.672v15H8v-15H28m0-1H8a1,1,0,0,0-1,1v15a1,1,0,0,0,1,1H28a1,1,0,0,0,1-1v-15a1,1,0,0,0-1-1Z" transform="translate(0 0)" fill="#fff"/>
</svg>
